# xmcd
#
# Track frame offsets: 
#        187
#        12270
#        26450
#        37715
#        49910
#        61627
#        79847
#        92225
#        104762
#        116872
#        129107
#        139070
#        157202
#        168187
#        181812
#        194840
#        205432
#        214712
#
# Disc length: 3014 seconds
#
# Revision: 0
# Processed by: cddbd v1.5.1PL0 Copyright (c) Steve Scherf et al.
# Submitted via: ExactAudioCopy v0.95a5
#
DISCID=fa0bc412
DTITLE=Various Artist - 30 Years of No. 1 Country Hits Disc 3
DYEAR=1990
DGENRE=Country
TTITLE0=Make The World Go Away
TTITLE1=This Is It
TTITLE2=Take Good Care Of Her
TTITLE3=Girl On The Billboard
TTITLE4=There Goes My Everything
TTITLE5=Giddy Up Go
TTITLE6=Okie From Muskogee
TTITLE7=For Loving You
TTITLE8=Galveston
TTITLE9=All The Time
TTITLE10=Fist City
TTITLE11=Honey
TTITLE12=Hello Darlin'
TTITLE13=Coal Miner's Daughter
TTITLE14=Fightin' Side Of Me
TTITLE15=When You're Hot You're Hot
TTITLE16=Kiss An Angel Good Mornin'
TTITLE17=Help Me Make It Through The Night
EXTD=
EXTT0=
EXTT1=
EXTT2=
EXTT3=
EXTT4=
EXTT5=
EXTT6=
EXTT7=
EXTT8=
EXTT9=
EXTT10=
EXTT11=
EXTT12=
EXTT13=
EXTT14=
EXTT15=
EXTT16=
EXTT17=
PLAYORDER=
